<svg xmlns="http://www.w3.org/2000/svg" fill-rule="evenodd" viewBox="0 0 100 100">
    <path d="M80.5 11H61V7.5A1.5 1.5 0 0 0 59.5 6h-18A1.5 1.5 0 0 0 40 7.5V11H21.5a1.5 1.5 0 0 0-1.5 1.5v72a1.5 1.5 0 0 0 1.5 1.5h59a1.5 1.5 0 0 0 1.5-1.5v-72a1.5 1.5 0 0 0-1.5-1.5ZM43 9h15v6H43Zm36 74H23V14h17v2.5a1.5 1.5 0 0 0 1.5 1.5h18a1.5 1.5 0 0 0 1.5-1.5V14h18Z"/>
    <path d="M33.5 34h-5a1.5 1.5 0 0 0 0 3h5a1.5 1.5 0 0 0 0-3Zm7 0a1.5 1.5 0 0 0 0 3h33a1.5 1.5 0 0 0 0-3Zm-7 13h-5a1.5 1.5 0 0 0 0 3h5a1.5 1.5 0 0 0 0-3Zm40 0h-33a1.5 1.5 0 0 0 0 3h33a1.5 1.5 0 0 0 0-3Zm-40 13h-5a1.5 1.5 0 0 0 0 3h5a1.5 1.5 0 0 0 0-3Zm40 0h-33a1.5 1.5 0 0 0 0 3h33a1.5 1.5 0 0 0 0-3Z"/>
</svg>
